<mxfile host="app.diagrams.net" modified="2023-06-16T07:48:32.356Z" agent="Mozilla/5.0 (Macintosh; Intel Mac OS X 10_15_7) AppleWebKit/537.36 (KHTML, like Gecko) Chrome/93.0.4577.63 Safari/537.36" version="21.4.0" etag="gq6mr0vjd9nR0UuG1fmp" type="github">
  <diagram name="第 1 页" id="dBlSIPtjfClTqWGyVCDw">
    <mxGraphModel>
      <root>
        <mxCell id="0" />
        <mxCell id="1" parent="0" />
      </root>
    </mxGraphModel>
  </diagram>
</mxfile>
